<?xml version="1.0" encoding="utf-8"?>
<!-- Generator: Adobe Illustrator 25.2.0, SVG Export Plug-In . SVG Version: 6.00 Build 0)  -->
<svg version="1.1" id="Layer_1" xmlns="http://www.w3.org/2000/svg" xmlns:xlink="http://www.w3.org/1999/xlink" x="0px" y="0px"
	 viewBox="0 0 638.3 323.9" style="enable-background:new 0 0 638.3 323.9;" xml:space="preserve">
<style type="text/css">
	.st0{fill:#C9C9C9;}
	.st1{fill:#CECECE;}
	.st2{fill:#FFFFFF;}
	.st3{fill:none;stroke:#111111;stroke-width:4;stroke-linecap:round;stroke-linejoin:round;stroke-miterlimit:10;}
	.st4{fill:#FF3E3E;}
	
		.st5{opacity:0.28;fill:#111111;stroke:#111111;stroke-width:4;stroke-linecap:round;stroke-linejoin:round;stroke-miterlimit:10;enable-background:new    ;}
	.st6{fill:#26D595;}
	.st7{fill:#5F5AFF;}
	.st8{fill:#F6F9FD;}
	.st9{fill:#BFCFE2;}
	.st10{fill:#1A2636;}
	.st11{fill:#2D425E;}
	.st12{fill:#D0DDF0;}
	.st13{fill:#2C785C;}
	
		.st14{opacity:0.34;fill:none;stroke:#FFFFFF;stroke-width:2;stroke-linecap:round;stroke-linejoin:round;stroke-miterlimit:10;enable-background:new    ;}
	.st15{opacity:0.34;}
	.st16{fill:none;stroke:#FFFFFF;stroke-width:2;stroke-linecap:round;stroke-linejoin:round;stroke-miterlimit:10;}
	.st17{fill:#111111;}
	.st18{fill:none;stroke:#FFFFFF;stroke-width:4;stroke-linecap:round;stroke-linejoin:round;stroke-miterlimit:10;}
	.st19{fill:none;stroke:#26D595;stroke-width:4;stroke-linecap:round;stroke-linejoin:round;stroke-miterlimit:10;}
	.st20{fill:none;stroke:#9169FF;stroke-width:4;stroke-linecap:round;stroke-linejoin:round;stroke-miterlimit:10;}
	.st21{fill:none;stroke:#FFC47D;stroke-width:4;stroke-linecap:round;stroke-linejoin:round;stroke-miterlimit:10;}
	.st22{fill:none;stroke:#FF5757;stroke-width:4;stroke-linecap:round;stroke-linejoin:round;stroke-miterlimit:10;}
	.st23{fill:#FFA364;}
	.st24{fill:#2AA1FF;}
	.st25{fill:none;stroke:#111111;stroke-width:4.0001;stroke-linecap:round;stroke-linejoin:round;stroke-miterlimit:10.0002;}
	.st26{fill:#FF5252;}
	.st27{fill:none;stroke:#111111;stroke-width:3.9998;stroke-linecap:round;stroke-linejoin:round;stroke-miterlimit:9.9996;}
	.st28{fill:#6567C3;}
</style>
<g id="XMLID_34_">
	<path id="XMLID_223_" class="st0" d="M629.3,323.9H9c-5,0-9-4-9-9l0,0c0-5,4-9,9-9h620.3c5,0,9,4,9,9l0,0
		C638.3,319.9,634.3,323.9,629.3,323.9z"/>
	<g id="XMLID_19_">
		<g id="XMLID_163_">
			<path id="XMLID_178_" class="st1" d="M125.7,230.9c-9.6,0-17.3-7.8-17.3-17.3s7.8-17.3,17.3-17.3h98V231h-98V230.9z"/>
			<path id="XMLID_162_" class="st2" d="M229.4,236.9H125.7c-12.9,0-23.3-10.5-23.3-23.3l0,0c0-12.9,10.5-23.3,23.3-23.3h103.7
				L229.4,236.9L229.4,236.9z"/>
			<line id="XMLID_164_" class="st3" x1="119.3" y1="208.2" x2="223.7" y2="208.2"/>
			<line id="XMLID_173_" class="st3" x1="119.3" y1="218.8" x2="223.7" y2="218.8"/>
			<path id="XMLID_179_" class="st3" d="M125.7,230.9c-9.6,0-17.3-7.8-17.3-17.3s7.8-17.3,17.3-17.3h98V231h-98V230.9z"/>
			<path id="XMLID_161_" class="st4" d="M125.7,230.9c-9.6,0-17.3-7.8-17.3-17.3s7.8-17.3,17.3-17.3h99.7l4-6H125.7
				c-12.9,0-23.3,10.5-23.3,23.3l0,0c0,12.9,10.5,23.3,23.3,23.3h103.7l-4-6H125.7z"/>
			<path id="XMLID_182_" class="st3" d="M125.7,230.9c-9.6,0-17.3-7.8-17.3-17.3s7.8-17.3,17.3-17.3h99.7l4-6H125.7
				c-12.9,0-23.3,10.5-23.3,23.3l0,0c0,12.9,10.5,23.3,23.3,23.3h103.7l-4-6H125.7z"/>
			<rect id="XMLID_224_" x="188.7" y="190.2" class="st5" width="18.4" height="46.7"/>
		</g>
		<g id="XMLID_160_">
			<path id="XMLID_157_" class="st6" d="M218.7,275.4H28.8c-3.7,0-6.8-3-6.8-6.8v-25c0-3.7,3-6.8,6.8-6.8h189.9c3.7,0,6.8,3,6.8,6.8
				v25C225.5,272.4,222.5,275.4,218.7,275.4z"/>
			<path id="XMLID_146_" class="st3" d="M218.7,275.4H28.8c-3.7,0-6.8-3-6.8-6.8v-25c0-3.7,3-6.8,6.8-6.8h189.9c3.7,0,6.8,3,6.8,6.8
				v25C225.5,272.4,222.5,275.4,218.7,275.4z"/>
			<g>
				<path class="st2" d="M68.1,261.7l0.7-1.3c0.2-0.3,0.5-0.3,0.7-0.1c0.1,0.1,1.8,1.3,3.1,1.3c1.1,0,1.9-0.7,1.9-1.6
					c0-1-0.9-1.8-2.6-2.5c-1.9-0.8-3.8-2-3.8-4.4c0-1.8,1.4-3.9,4.6-3.9c2.1,0,3.7,1.1,4.1,1.4c0.2,0.1,0.3,0.5,0.1,0.7l-0.8,1.2
					c-0.2,0.2-0.5,0.4-0.7,0.2c-0.2-0.1-1.7-1.1-2.8-1.1c-1.2,0-1.8,0.8-1.8,1.4c0,1,0.8,1.6,2.4,2.3c2,0.8,4.3,2,4.3,4.6
					c0,2.1-1.8,4.1-4.7,4.1c-2.6,0-4.1-1.2-4.5-1.6C68.1,262.1,68,262,68.1,261.7z"/>
				<path class="st2" d="M89.5,249.2c4.1,0,7.4,3.3,7.4,7.4c0,4.1-3.3,7.3-7.4,7.3c-4.1,0-7.3-3.3-7.3-7.3
					C82.1,252.4,85.4,249.2,89.5,249.2z M89.5,261.2c2.6,0,4.7-2.1,4.7-4.7s-2.1-4.7-4.7-4.7c-2.6,0-4.7,2.1-4.7,4.7
					S86.9,261.2,89.5,261.2z"/>
				<path class="st2" d="M102.6,249.7c0-0.2,0.2-0.4,0.4-0.4h1.9c0.2,0,0.4,0.2,0.4,0.4v11.5h5.2c0.2,0,0.4,0.2,0.4,0.4v1.7
					c0,0.2-0.2,0.4-0.4,0.4H103c-0.2,0-0.4-0.2-0.4-0.4V249.7z"/>
				<path class="st2" d="M116,249.7c0-0.2,0.2-0.4,0.4-0.4h1.9c0.2,0,0.4,0.2,0.4,0.4v13.5c0,0.2-0.2,0.4-0.4,0.4h-1.9
					c-0.2,0-0.4-0.2-0.4-0.4V249.7z"/>
				<path class="st2" d="M125.5,249.7c0-0.2,0.2-0.4,0.4-0.4h4.8c3.9,0,7.2,3.2,7.2,7.1c0,4-3.2,7.2-7.2,7.2h-4.8
					c-0.2,0-0.4-0.2-0.4-0.4V249.7z M130.4,261.2c2.7,0,4.6-2,4.6-4.7c0-2.7-1.9-4.7-4.6-4.7h-2.3v9.4H130.4z"/>
				<path class="st2" d="M143.6,249.7c0-0.2,0.2-0.4,0.4-0.4h1.9c0.2,0,0.4,0.2,0.4,0.4v13.5c0,0.2-0.2,0.4-0.4,0.4H144
					c-0.2,0-0.4-0.2-0.4-0.4V249.7z"/>
				<path class="st2" d="M155,251.8h-3.1c-0.2,0-0.4-0.2-0.4-0.4v-1.7c0-0.2,0.2-0.4,0.4-0.4h8.9c0.2,0,0.4,0.2,0.4,0.4v1.7
					c0,0.2-0.2,0.4-0.4,0.4h-3.1v11.5c0,0.2-0.2,0.4-0.4,0.4h-1.9c-0.2,0-0.4-0.2-0.4-0.4V251.8z"/>
				<path class="st2" d="M169.8,256.8l-4.7-6.8c-0.2-0.3,0-0.6,0.3-0.6h2.1c0.2,0,0.3,0.1,0.3,0.2l3.3,4.7l3.3-4.7
					c0.1-0.1,0.2-0.2,0.3-0.2h2.1c0.3,0,0.5,0.3,0.3,0.6l-4.7,6.8v6.5c0,0.2-0.2,0.4-0.4,0.4h-1.9c-0.2,0-0.4-0.2-0.4-0.4V256.8z"/>
			</g>
		</g>
		<path id="XMLID_246_" class="st5" d="M218.7,236.9h-30v15c0,9.4,7.6,17.1,17.1,17.1h19.7c0-0.1,0-0.2,0-0.3v-25
			C225.5,239.9,222.5,236.9,218.7,236.9z"/>
		<path id="XMLID_35_" class="st1" d="M272.2,283.2h-220c1.3,3.2,2,7.2,2,11.4s-0.7,8.1-2,11.4h219.9c-1.3-3.2-2-7.2-2-11.4
			C270.2,290.3,270.9,286.4,272.2,283.2z"/>
		<rect id="XMLID_156_" x="46.3" y="277.1" class="st7" width="231.9" height="6"/>
		<rect id="XMLID_32_" x="46.3" y="277.1" class="st3" width="231.9" height="6"/>
		<rect id="XMLID_147_" x="46.3" y="305.9" class="st8" width="231.9" height="6"/>
		<rect id="XMLID_39_" x="46.3" y="305.9" class="st7" width="231.9" height="6"/>
		<rect id="XMLID_37_" x="46.3" y="305.9" class="st3" width="231.9" height="6"/>
		<path id="XMLID_69_" class="st9" d="M393.4,290.6l-3-33.7H341l-3,33.7c-0.7,7.8-5.4,15.3-12.8,21.3v0.1h81v-0.1
			C398.8,305.9,394.1,298.4,393.4,290.6z"/>
		<polygon id="XMLID_33_" class="st5" points="341,256.9 339.2,277.1 392.2,277.1 390.4,256.9 		"/>
		<path id="XMLID_10_" class="st3" d="M393.4,290.6l-3-33.7H341l-3,33.7c-0.7,7.8-5.4,15.3-12.8,21.3v0.1h81v-0.1
			C398.8,305.9,394.1,298.4,393.4,290.6z"/>
		<path id="XMLID_13_" class="st2" d="M523.7,261.9h-316c-6.6,0-12-5.4-12-12v-206c0-6.6,5.4-12,12-12h316c6.6,0,12,5.4,12,12v206
			C535.7,256.6,530.3,261.9,523.7,261.9z"/>
		<path id="XMLID_63_" class="st9" d="M523.7,261.9h-316c-6.6,0-12-5.4-12-12v-206c0-6.6,5.4-12,12-12h316c6.6,0,12,5.4,12,12v206
			C535.7,256.6,530.3,261.9,523.7,261.9z"/>
		<path id="XMLID_4_" class="st3" d="M523.7,261.9h-316c-6.6,0-12-5.4-12-12v-206c0-6.6,5.4-12,12-12h316c6.6,0,12,5.4,12,12v206
			C535.7,256.6,530.3,261.9,523.7,261.9z"/>
		<rect id="XMLID_68_" x="212.8" y="48.9" class="st10" width="306" height="174.6"/>
		<path id="XMLID_197_" class="st5" d="M223.7,31.9v138.6c0,4.4,3.6,8,8,8h189.1c4.4,0,8-3.6,8-8V31.9H223.7z"/>
		<rect id="XMLID_11_" x="212.8" y="48.9" class="st3" width="306" height="174.6"/>
		<line id="XMLID_9_" class="st3" x1="352.3" y1="242.6" x2="379.2" y2="242.6"/>
		<path id="XMLID_15_" class="st11" d="M429.8,167.5H240.7c-4.4,0-8-3.6-8-8V11.3c0-4.4,3.6-8,8-8h189.1c4.4,0,8,3.6,8,8v148.3
			C437.8,164,434.2,167.5,429.8,167.5z"/>
		<path id="XMLID_17_" class="st3" d="M437.8,22.7H232.7V11.2c0-4.4,3.6-8,8-8h189.1c4.4,0,8,3.6,8,8V22.7z"/>
		<path id="XMLID_23_" class="st12" d="M437.8,26.5H232.7V11.2c0-4.4,3.6-8,8-8h189.1c4.4,0,8,3.6,8,8V26.5z"/>
		<path id="XMLID_18_" class="st3" d="M437.8,26.5H232.7V11.2c0-4.4,3.6-8,8-8h189.1c4.4,0,8,3.6,8,8V26.5z"/>
		<path id="XMLID_20_" class="st3" d="M437.8,26.5H232.7V11.2c0-4.4,3.6-8,8-8h189.1c4.4,0,8,3.6,8,8V26.5z"/>
		<path id="XMLID_12_" class="st3" d="M429.8,167.5H240.7c-4.4,0-8-3.6-8-8V11.3c0-4.4,3.6-8,8-8h189.1c4.4,0,8,3.6,8,8v148.3
			C437.8,164,434.2,167.5,429.8,167.5z"/>
		<g id="XMLID_72_">
			<path id="XMLID_7_" class="st5" d="M528.5,202.9h-116c-4.4,0-8-3.6-8-8V72c0-4.4,3.6-8,8-8h116c4.4,0,8,3.6,8,8v122.9
				C536.5,199.4,532.9,202.9,528.5,202.9z"/>
			<path id="XMLID_16_" class="st13" d="M536.5,195.9h-116c-4.4,0-8-3.6-8-8V65c0-4.4,3.6-8,8-8h116c4.4,0,8,3.6,8,8v122.9
				C544.5,192.4,540.9,195.9,536.5,195.9z"/>
			<path id="XMLID_14_" class="st3" d="M536.5,195.9h-116c-4.4,0-8-3.6-8-8V65c0-4.4,3.6-8,8-8h116c4.4,0,8,3.6,8,8v122.9
				C544.5,192.4,540.9,195.9,536.5,195.9z"/>
			<path id="XMLID_75_" class="st14" d="M519.2,95.1h-81.6c-2.9,0-5.2-2.3-5.2-5.2v-7.8c0-2.9,2.3-5.2,5.2-5.2h81.6
				c2.9,0,5.2,2.3,5.2,5.2v7.8C524.4,92.8,522.1,95.1,519.2,95.1z"/>
			<g id="XMLID_143_" class="st15">
				<path id="XMLID_78_" class="st16" d="M483.4,124.4h-45.6c-2.9,0-5.2-2.3-5.2-5.2v-7.8c0-2.9,2.3-5.2,5.2-5.2h45.6
					c2.9,0,5.2,2.3,5.2,5.2v7.8C488.5,122.1,486.2,124.4,483.4,124.4z"/>
				<path id="XMLID_79_" class="st16" d="M519.3,124.4h-17.7c-2.9,0-5.2-2.3-5.2-5.2v-7.8c0-2.9,2.3-5.2,5.2-5.2h17.7
					c2.9,0,5.2,2.3,5.2,5.2v7.8C524.5,122.1,522.2,124.4,519.3,124.4z"/>
			</g>
			<g id="XMLID_76_">
				<line id="XMLID_135_" class="st16" x1="432.5" y1="154.8" x2="524.4" y2="154.8"/>
				<line id="XMLID_136_" class="st16" x1="432.5" y1="165.6" x2="524.4" y2="165.6"/>
				<line id="XMLID_138_" class="st16" x1="432.5" y1="176.4" x2="488.5" y2="176.4"/>
			</g>
		</g>
		<circle id="XMLID_24_" class="st17" cx="252.8" cy="14.9" r="4"/>
		<circle id="XMLID_28_" class="st17" cx="266.7" cy="14.9" r="4"/>
		<circle id="XMLID_38_" class="st17" cx="280.6" cy="14.9" r="4"/>
		<g id="XMLID_61_">
			<line id="XMLID_54_" class="st18" x1="350.5" y1="45" x2="363.5" y2="45"/>
			<line id="XMLID_66_" class="st19" x1="284.6" y1="45" x2="340.9" y2="45"/>
			<line id="XMLID_29_" class="st20" x1="256.8" y1="45" x2="276.6" y2="45"/>
		</g>
		<g id="XMLID_42_">
			<line id="XMLID_62_" class="st20" x1="282.6" y1="143.5" x2="325.6" y2="143.5"/>
			<line id="XMLID_30_" class="st19" x1="256.8" y1="143.5" x2="270.7" y2="143.5"/>
		</g>
		<g id="XMLID_27_">
			<line id="XMLID_60_" class="st18" x1="340.9" y1="57.3" x2="349" y2="57.3"/>
			<line id="XMLID_45_" class="st20" x1="304.1" y1="57.3" x2="331.3" y2="57.3"/>
			<line id="XMLID_47_" class="st21" x1="266.7" y1="57.3" x2="294.4" y2="57.3"/>
		</g>
		<g id="XMLID_49_">
			<line id="XMLID_59_" class="st18" x1="309.6" y1="69.6" x2="333.5" y2="69.6"/>
			<line id="XMLID_50_" class="st22" x1="279.6" y1="69.6" x2="302.1" y2="69.6"/>
		</g>
		<g id="XMLID_65_">
			<line id="XMLID_58_" class="st18" x1="312.8" y1="81.9" x2="317.7" y2="81.9"/>
			<line id="XMLID_70_" class="st20" x1="293" y1="81.9" x2="304.1" y2="81.9"/>
			<line id="XMLID_67_" class="st19" x1="266.7" y1="81.9" x2="284.6" y2="81.9"/>
		</g>
		<g id="XMLID_73_">
			<line id="XMLID_77_" class="st21" x1="305.1" y1="94.3" x2="337" y2="94.3"/>
			<line id="XMLID_74_" class="st22" x1="266.7" y1="94.3" x2="295.3" y2="94.3"/>
		</g>
		<g id="XMLID_80_">
			<line id="XMLID_64_" class="st20" x1="342" y1="106.6" x2="359.3" y2="106.6"/>
			<line id="XMLID_84_" class="st22" x1="305.1" y1="106.6" x2="332.8" y2="106.6"/>
			<line id="XMLID_81_" class="st19" x1="279.6" y1="106.6" x2="295.3" y2="106.6"/>
		</g>
		<g id="XMLID_87_">
			<line id="XMLID_95_" class="st18" x1="317.7" y1="118.9" x2="332.8" y2="118.9"/>
			<line id="XMLID_90_" class="st20" x1="279.6" y1="118.9" x2="307.3" y2="118.9"/>
		</g>
		<g id="XMLID_98_">
			<line id="XMLID_71_" class="st18" x1="357" y1="131.2" x2="374.3" y2="131.2"/>
			<line id="XMLID_102_" class="st21" x1="304.1" y1="131.2" x2="347.6" y2="131.2"/>
			<line id="XMLID_99_" class="st18" x1="266.7" y1="131.2" x2="294.4" y2="131.2"/>
		</g>
		<line id="XMLID_145_" class="st3" x1="54.7" y1="290.1" x2="270.2" y2="290.1"/>
		<line id="XMLID_151_" class="st3" x1="54.7" y1="298.1" x2="270.2" y2="298.1"/>
		<path id="XMLID_158_" class="st3" d="M272.2,283.2h-220c1.3,3.2,2,7.2,2,11.4s-0.7,8.1-2,11.4h219.9c-1.3-3.2-2-7.2-2-11.4
			C270.2,290.3,270.9,286.4,272.2,283.2z"/>
	</g>
	<g id="XMLID_222_">
		<g id="XMLID_174_">
			
				<rect id="XMLID_177_" x="562.6" y="202" transform="matrix(0.9932 -0.1166 0.1166 0.9932 -23.9134 67.7962)" class="st23" width="9.8" height="72.6"/>
			
				<rect id="XMLID_31_" x="558.8" y="202.3" transform="matrix(0.9932 -0.1166 0.1166 0.9932 -20.173 67.1342)" class="st24" width="9.8" height="7.4"/>
			
				<rect id="XMLID_217_" x="558.8" y="202.3" transform="matrix(0.9932 -0.1166 0.1166 0.9932 -20.173 67.1342)" class="st25" width="9.8" height="7.4"/>
			
				<rect id="XMLID_22_" x="562.6" y="202" transform="matrix(0.9932 -0.1166 0.1166 0.9932 -23.9134 67.7962)" class="st25" width="9.8" height="72.6"/>
		</g>
		<g id="XMLID_189_">
			
				<rect id="XMLID_218_" x="549.7" y="247.1" transform="matrix(0.1081 -0.9941 0.9941 0.1081 272.1729 807.3614)" class="st26" width="72.6" height="9.8"/>
			
				<rect id="XMLID_214_" x="549.7" y="247.1" transform="matrix(0.1081 -0.9941 0.9941 0.1081 272.1729 807.3614)" class="st27" width="72.6" height="9.8"/>
			
				<rect id="XMLID_220_" x="585.9" y="214.7" transform="matrix(0.1081 -0.9941 0.9941 0.1081 307.5812 782.0477)" class="st11" width="7.4" height="9.8"/>
			
				<rect id="XMLID_211_" x="585.9" y="214.7" transform="matrix(0.1081 -0.9941 0.9941 0.1081 307.5812 782.0477)" class="st27" width="7.4" height="9.8"/>
		</g>
		<polygon id="XMLID_26_" class="st28" points="600.9,312.2 561.6,312.2 555.2,252 607.3,252 		"/>
		<polygon id="XMLID_233_" class="st28" points="555.2,252 555.3,253.1 595,253.1 588.7,312.2 600.9,312.2 607.3,252 		"/>
		<polygon id="XMLID_21_" class="st3" points="600.9,312.2 561.6,312.2 555.2,252 607.3,252 		"/>
	</g>
</g>
</svg>
